# xmcd
#
# Track frame offsets:
# 150
# 11053
# 26887
# 37929
# 55430
# 65661
# 80396
# 97621
# 111739
#
# Disc length: 1704 seconds
#
# Revision: 0
# Processed by: cddbd v1.4PL0 Copyright (c) Steve Scherf et al.
# Submitted via: Axialis_AX_CDPlayer 2.6
#
DISCID=7306a609
DTITLE=Alan Jackson - Super Hits
DYEAR=1900
DGENRE=
TTITLE0=Chasin' That Neon Rainbow 
TTITLE1=Who Says You Can't Have It All 
TTITLE2=She's Got The Rhythm (And I Got The Blues) 
TTITLE3=I Don't Even Know Your Name 
TTITLE4=Blue Blooded Woman 
TTITLE5=Working Class Hero 
TTITLE6=That's All I Need To Know 
TTITLE7=You Can't Give Up On Love 
TTITLE8=Must've Had A Ball 
EXTD=
EXTT0=
EXTT1=
EXTT2=
EXTT3=
EXTT4=
EXTT5=
EXTT6=
EXTT7=
EXTT8=
PLAYORDER=
